<?xml version="1.0" encoding="utf-8"?>
<!-- Generator: Adobe Illustrator 19.2.1, SVG Export Plug-In . SVG Version: 6.00 Build 0)  -->
<svg version="1.1" id="Layer_1" xmlns="http://www.w3.org/2000/svg" xmlns:xlink="http://www.w3.org/1999/xlink" x="0px" y="0px"
	 width="16px" height="18px" viewBox="0 0 16 18" style="enable-background:new 0 0 16 18;" xml:space="preserve">
<style type="text/css">
	.st0{fill:#0083C1;}
	.st1{fill:#7DDBD4;}
</style>
<g>
	<path class="st0" d="M2.3,8.4C2.1,8.8,1.9,9.2,1.8,9.6c-0.2,0.6-0.3,1.3-0.3,1.9c0,1.1,0.3,2.2,0.8,3.1c0.1,0.3,0.3,0.5,0.5,0.8
		l4.9-3.6V5C5.3,5.1,3.3,6.5,2.3,8.4z M5.6,7.6C6.2,7.5,6.7,8,6.8,8.8c0.1,0.7-0.4,1.3-1,1.4C5.2,10.2,4.7,9.7,4.6,9
		C4.6,8.2,5,7.6,5.6,7.6z M4.6,11.2c0.2,0.7-0.1,1.4-0.7,1.5c-0.6,0.2-1.2-0.3-1.4-1s0.1-1.4,0.7-1.5C3.8,10,4.4,10.5,4.6,11.2z"/>
	<path class="st0" d="M14.2,9.6c-0.1-0.4-0.3-0.8-0.5-1.2C12.7,6.5,10.7,5.1,8.3,5v6.8l4.9,3.6c0.2-0.3,0.4-0.5,0.5-0.8
		c0.5-0.9,0.8-2,0.8-3.1C14.5,10.8,14.4,10.2,14.2,9.6z M10.2,10.2c-0.6-0.1-1-0.7-1-1.4C9.2,8,9.8,7.5,10.4,7.6
		c0.6,0.1,1,0.7,1,1.4C11.3,9.7,10.8,10.2,10.2,10.2z M13.5,11.7c-0.2,0.7-0.8,1.1-1.4,1c-0.6-0.2-0.9-0.8-0.7-1.5
		c0.2-0.7,0.8-1.1,1.4-1C13.4,10.4,13.7,11,13.5,11.7z"/>
	<path class="st1" d="M3.3,16c1.1,1.2,2.7,2,4.4,2v-5.4L3.3,16z"/>
	<path class="st1" d="M8.3,12.6V18c1.7-0.1,3.3-0.9,4.4-2L8.3,12.6z"/>
	
		<ellipse transform="matrix(0.9962 -8.719920e-02 8.719920e-02 0.9962 -0.7506 0.5321)" class="st1" cx="5.7" cy="8.9" rx="1.1" ry="1.3"/>
	<ellipse transform="matrix(0.9659 -0.2588 0.2588 0.9659 -2.8468 1.3075)" class="st1" cx="3.5" cy="11.5" rx="1.1" ry="1.3"/>
	
		<ellipse transform="matrix(8.719920e-02 -0.9962 0.9962 8.719920e-02 0.553 18.3192)" class="st1" cx="10.3" cy="8.9" rx="1.3" ry="1.1"/>
	<ellipse transform="matrix(0.2588 -0.9659 0.9659 0.2588 -1.8491 20.5099)" class="st1" cx="12.4" cy="11.5" rx="1.3" ry="1.1"/>
</g>
</svg>
