<?xml version="1.0" encoding="utf-8"?>
<!-- Generator: Adobe Illustrator 19.2.1, SVG Export Plug-In . SVG Version: 6.00 Build 0)  -->
<svg version="1.1" id="Layer_1" xmlns="http://www.w3.org/2000/svg" xmlns:xlink="http://www.w3.org/1999/xlink" x="0px" y="0px"
	 width="200px" height="45.3px" viewBox="0 0 200 45.3" style="enable-background:new 0 0 200 45.3;" xml:space="preserve">
<style type="text/css">
	.st0{fill:#F6921E;}
	.st1{fill:#0085B8;}
	.st2{fill:#C3519D;}
	.st3{fill:#FFFFFF;}
	.st4{fill:#00B38F;}
</style>
<g>
	<g>
		<g>
			<path class="st0" d="M75.5,43c-1.1,1.8-2.9,1.8-4,0L48.7,5.1c-1.1-1.8-0.3-3.3,1.9-3.3h45.9c2.1,0,2.9,1.5,1.9,3.3L75.5,43z"/>
		</g>
	</g>
	<g>
		<g>
			<path class="st1" d="M117,42.4l-12.5-12.5c-3.9-3.9-3.9-10.3,0-14.1L117,3.3c3.9-3.9,10.3-3.9,14.1,0l12.5,12.5
				c3.9,3.9,3.9,10.3,0,14.1l-12.5,12.5C127.2,46.3,120.9,46.3,117,42.4z"/>
		</g>
	</g>
	<g>
		<path class="st2" d="M157.2,29.1c0-13.7,9-25.3,21.4-29.1C191,3.9,200,15.5,200,29.1v7.1c0,3.3-2.4,6.1-5.5,6.8l0,0l0,0l0,0
			c-5.1,1-10.4,1.6-15.8,1.6c-5.4,0-10.7-0.5-15.8-1.6l0,0l0,0l0,0c-3.2-0.6-5.5-3.4-5.5-6.8L157.2,29.1z"/>
	</g>
	<g>
		<g>
			<circle class="st3" cx="124.1" cy="27.5" r="6.8"/>
		</g>
		<g>
			<circle class="st3" cx="113.9" cy="21.5" r="3.1"/>
		</g>
		<g>
			<circle class="st3" cx="119.7" cy="14.8" r="3.1"/>
		</g>
		<g>
			<circle class="st3" cx="134.2" cy="21.5" r="3.1"/>
		</g>
		<g>
			<circle class="st3" cx="128.4" cy="14.8" r="3.1"/>
		</g>
	</g>
	<g>
		<g>
			<g>
				<path class="st3" d="M67.7,14.1c-2.3,0-4.2,1.9-4.2,4.2c0,0.9,0.9,3,1,3.3l2.3,4.9c0.5,1.4,1.4,1.4,2,0l2.3-4.9
					c0.1-0.3,1-2.4,1-3.3C72,16,70.1,14.1,67.7,14.1z M67.7,21c-1.5,0-2.7-1.2-2.7-2.7s1.2-2.7,2.7-2.7s2.7,1.2,2.7,2.7
					S69.2,21,67.7,21z"/>
			</g>
		</g>
		<g>
			<g>
				<path class="st3" d="M81.6,5.6c-2.3,0-4.2,1.9-4.2,4.2c0,0.9,0.9,3,1,3.3l2.3,4.9c0.5,1.4,1.4,1.4,2,0l2.3-4.9
					c0.1-0.3,1-2.4,1-3.3C85.8,7.5,83.9,5.6,81.6,5.6z M81.6,12.5c-1.5,0-2.7-1.2-2.7-2.7s1.2-2.7,2.7-2.7s2.7,1.2,2.7,2.7
					C84.3,11.3,83.1,12.5,81.6,12.5z"/>
			</g>
		</g>
		<g>
			<g>
				<path class="st3" d="M70.4,30.5c-0.1,0-0.2,0-0.2,0c-0.3-0.1-0.5-0.2-0.8-0.3c-0.4-0.2-0.6-0.6-0.4-1s0.6-0.6,1-0.4
					c0.2,0.1,0.4,0.2,0.7,0.2c0.4,0.1,0.6,0.6,0.5,1C71.1,30.3,70.7,30.5,70.4,30.5z"/>
			</g>
			<g>
				<path class="st3" d="M73.3,31c-0.4,0-0.8-0.3-0.8-0.8s0.3-0.8,0.7-0.8l0,0c0.4,0,0.9,0,1.3-0.1s0.8,0.2,0.9,0.7
					c0.1,0.4-0.2,0.8-0.7,0.9C74.3,31,73.8,31,73.3,31z M77.5,30.1c-0.3,0-0.6-0.2-0.7-0.4c-0.2-0.4,0-0.8,0.4-1
					c0.3-0.1,0.6-0.3,0.9-0.5c0.1-0.1,0.2-0.1,0.3-0.2c0.3-0.2,0.8-0.2,1.1,0.2c0.2,0.3,0.2,0.8-0.2,1.1c-0.1,0.1-0.2,0.1-0.3,0.2
					c-0.3,0.2-0.7,0.4-1.1,0.6C77.7,30.1,77.6,30.1,77.5,30.1z M80.8,27.3c-0.2,0-0.3,0-0.4-0.1c-0.3-0.2-0.4-0.7-0.2-1.1
					c0.3-0.4,0.5-0.7,0.6-1.1c0.2-0.4,0.6-0.6,1-0.4s0.6,0.6,0.4,1c-0.2,0.5-0.5,0.9-0.8,1.4C81.3,27.2,81,27.3,80.8,27.3z"/>
			</g>
			<g>
				<path class="st3" d="M82.1,23.3c-0.4,0-0.8-0.3-0.8-0.8c0-0.2,0-0.4-0.1-0.7c-0.1-0.4,0.2-0.8,0.6-0.9s0.8,0.2,0.9,0.6
					c0,0.3,0.1,0.6,0.1,0.9C82.9,22.9,82.5,23.2,82.1,23.3L82.1,23.3z"/>
			</g>
		</g>
	</g>
	<g>
		<path class="st3" d="M190.1,13.6c0-1.5-1.2-2.6-2.6-2.6c-1.5,0-2.6,1.2-2.6,2.6c0,1.2,0.8,2.2,1.9,2.5c-0.2,4.1-3.5,7.3-7.6,7.3
			s-7.5-3.3-7.6-7.3c1.1-0.3,1.9-1.3,1.9-2.5c0-1.5-1.2-2.6-2.6-2.6c-1.5,0-2.6,1.2-2.6,2.6c0,1.2,0.8,2.2,1.9,2.5
			c0.2,4.7,3.8,8.4,8.4,8.8v9.8c0,1.9-1.5,3.4-3.4,3.4c-1.8,0-3.3-1.4-3.4-3.2c2-0.4,3.5-2.1,3.5-4.2c0-2.3-1.9-4.2-4.2-4.2
			s-4.2,1.9-4.2,4.2c0,2.1,1.5,3.8,3.5,4.2c0.2,2.6,2.3,4.7,5,4.7s5-2.2,5-5v-9.8c4.6-0.4,7.59-4.2,7.79-8.8
			C189.06,16,190.1,14.8,190.1,13.6z M168.4,30.7c0-1.5,1.2-2.7,2.7-2.7s2.7,1.2,2.7,2.7s-1.2,2.7-2.7,2.7S168.4,32.2,168.4,30.7z"
			/>
	</g>
	<g>
		<g>
			<path class="st4" d="M14.8,44.5c-1.1,0-2.5-0.6-3.3-1.4L1.4,33C0.6,32.2,0,30.7,0,29.7V15.2c0-1.1,0.6-2.5,1.4-3.3L11.6,1.8
				c0.7-0.7,2.2-1.4,3.3-1.4h14.4c1.1,0,2.5,0.6,3.3,1.4L42.8,12c0.7,0.7,1.4,2.2,1.4,3.3v14.4c0,1.1-0.6,2.5-1.4,3.3L32.5,43.2
				c-0.7,0.7-2.2,1.4-3.3,1.4H14.8V44.5z"/>
		</g>
	</g>
	<g>
		<path class="st3" d="M32.1,24.1c-0.5-4.8-4.3-8.6-9.2-9v-2.5h2.6c0.4,0,0.8-0.3,0.8-0.8S26,11,25.5,11h-6.7
			c-0.4,0-0.8,0.3-0.8,0.8s0.3,0.8,0.8,0.8h2.6v2.5c-4.8,0.4-8.7,4.2-9.2,9c0,0-0.9,0.4-0.9,1.3H33C33.1,24.5,32.1,24.1,32.1,24.1z"
			/>
		<path class="st3" d="M32.1,26.9H12.3c-1.1,0-1.9,0.7-1.9,1.5s0.9,1.5,1.9,1.5h19.9c1.1,0,1.9-0.7,1.9-1.5S33.2,26.9,32.1,26.9z"/>
	</g>
</g>
</svg>
