<?xml version="1.0" encoding="utf-8"?>
<!-- Generator: Adobe Illustrator 19.2.1, SVG Export Plug-In . SVG Version: 6.00 Build 0)  -->
<svg version="1.1" id="Layer_1" xmlns="http://www.w3.org/2000/svg" xmlns:xlink="http://www.w3.org/1999/xlink" x="0px" y="0px"
	 width="256px" height="292.86px" viewBox="0 0 256 292.86" style="enable-background:new 0 0 256 292.86;" xml:space="preserve">
<style type="text/css">
	.st0{opacity:0.3;}
	.st1{fill:#FFFFFF;}
</style>
<g class="st0">
	<path class="st1" d="M155.07,231c6.75,7.19,16.17,11.81,26.68,12.34v-32.33L155.07,231z"/>
	<path class="st1" d="M185.69,211.01v32.33c10.51-0.52,19.93-5.15,26.68-12.34L185.69,211.01z"/>
	<g>
		<path class="st1" d="M149.13,185.34c-1.21,2.23-2.21,4.59-2.98,7.05c-1.15,3.7-1.77,7.63-1.77,11.7c0,6.79,1.72,13.18,4.75,18.75
			c0.91,1.68,1.98,3.26,3.12,4.78l29.51-21.78v-40.99C167.65,165.55,155.49,173.62,149.13,185.34z M169.23,180.3
			c3.64-0.32,6.89,2.93,7.27,7.26c0.38,4.33-2.26,8.1-5.9,8.41c-3.64,0.32-6.89-2.93-7.27-7.26
			C162.95,184.38,165.59,180.62,169.23,180.3z M163.22,202.16c1.12,4.2-0.82,8.37-4.35,9.31c-3.53,0.94-7.3-1.69-8.42-5.89
			c-1.12-4.2,0.82-8.37,4.35-9.31S162.1,197.97,163.22,202.16z"/>
		<path class="st1" d="M221.3,192.39c-0.77-2.46-1.77-4.82-2.98-7.05c-6.37-11.72-18.53-19.79-32.63-20.49v40.99l29.51,21.78
			c1.14-1.52,2.2-3.1,3.12-4.78c3.03-5.57,4.75-11.96,4.75-18.75C223.07,200.02,222.45,196.09,221.3,192.39z M196.74,195.97
			c-3.64-0.32-6.28-4.09-5.9-8.41c0.38-4.33,3.63-7.58,7.27-7.26s6.28,4.09,5.9,8.41C203.63,193.04,200.38,196.29,196.74,195.97z
			 M216.89,205.58c-1.12,4.2-4.9,6.83-8.42,5.89c-3.53-0.94-5.47-5.11-4.35-9.31c1.12-4.2,4.89-6.83,8.42-5.89
			C216.07,197.22,218.02,201.39,216.89,205.58z"/>
	</g>
</g>
<g class="st0">
	<path class="st1" d="M202.12,66.79c4.61,4.91,11.04,8.07,18.22,8.42V53.14L202.12,66.79z"/>
	<path class="st1" d="M223.03,53.14v22.07c7.18-0.36,13.61-3.51,18.22-8.42L223.03,53.14z"/>
	<g>
		<path class="st1" d="M198.06,35.61c-0.83,1.52-1.51,3.13-2.03,4.82c-0.78,2.52-1.21,5.21-1.21,7.99c0,4.64,1.17,9,3.24,12.81
			c0.62,1.15,1.35,2.22,2.13,3.26l20.15-14.87V21.62C210.71,22.1,202.41,27.61,198.06,35.61z M211.79,32.17
			c2.48-0.22,4.71,2,4.96,4.96c0.26,2.96-1.54,5.53-4.03,5.75c-2.48,0.22-4.71-2-4.96-4.96C207.5,34.96,209.3,32.39,211.79,32.17z
			 M207.68,47.1c0.77,2.87-0.56,5.71-2.97,6.36c-2.41,0.65-4.98-1.16-5.75-4.02c-0.77-2.87,0.56-5.71,2.97-6.36
			C204.34,42.43,206.92,44.24,207.68,47.1z"/>
		<path class="st1" d="M247.34,40.43c-0.52-1.68-1.21-3.29-2.03-4.82c-4.35-8-12.65-13.52-22.28-13.99v27.99l20.15,14.87
			c0.78-1.04,1.51-2.12,2.13-3.26c2.07-3.81,3.24-8.17,3.24-12.81C248.55,45.64,248.13,42.95,247.34,40.43z M230.57,42.88
			c-2.48-0.22-4.29-2.79-4.03-5.75c0.26-2.96,2.48-5.18,4.96-4.96c2.48,0.22,4.29,2.79,4.03,5.75
			C235.28,40.87,233.06,43.09,230.57,42.88z M244.33,49.44c-0.77,2.87-3.34,4.67-5.75,4.02c-2.41-0.65-3.74-3.49-2.97-6.36
			c0.77-2.87,3.34-4.67,5.75-4.02C243.77,43.72,245.1,46.57,244.33,49.44z"/>
	</g>
</g>
<g class="st0">
	<circle class="st1" cx="193.39" cy="102.43" r="3.46"/>
	<path class="st1" d="M212.65,92.17h-59.26c-2.72,0-3.79,1.9-2.39,4.23l29.47,48.85c1.4,2.33,3.7,2.33,5.1,0l29.47-48.85
		C216.44,94.07,215.36,92.17,212.65,92.17z M179.93,128.51c-0.13,0.42-0.52,0.69-0.94,0.69c-0.1,0-0.2-0.02-0.3-0.05
		c-0.34-0.11-0.68-0.24-1.01-0.38c-0.5-0.21-0.73-0.79-0.52-1.3c0.21-0.5,0.8-0.73,1.3-0.52c0.27,0.12,0.55,0.22,0.84,0.31
		C179.81,127.43,180.1,127.99,179.93,128.51z M179.74,117.79l-2.93,6.31c-0.7,1.75-1.84,1.75-2.54,0l-2.93-6.31
		c-0.15-0.39-1.27-3.11-1.27-4.31c0-3.02,2.45-5.47,5.47-5.47c3.02,0,5.47,2.45,5.47,5.47C181.01,114.68,179.89,117.4,179.74,117.79
		z M184.67,129.63c-0.64,0.09-1.3,0.13-1.95,0.13c-0.55,0-1.01-0.44-1.01-0.99s0.42-0.99,0.96-0.99h0.05c0.56,0,1.12-0.04,1.68-0.12
		c0.54-0.07,1.04,0.3,1.11,0.84C185.58,129.05,185.21,129.55,184.67,129.63z M190.29,127.49c-0.13,0.09-0.27,0.18-0.41,0.27
		c-0.43,0.27-0.89,0.52-1.36,0.74c-0.13,0.06-0.28,0.09-0.42,0.09c-0.37,0-0.73-0.21-0.9-0.57c-0.23-0.49-0.02-1.08,0.48-1.31
		c0.4-0.19,0.78-0.39,1.14-0.62c0.11-0.07,0.22-0.14,0.33-0.22c0.45-0.31,1.06-0.2,1.37,0.25
		C190.85,126.57,190.74,127.18,190.29,127.49z M194.19,122.84c-0.28,0.62-0.62,1.22-1.01,1.79c-0.19,0.28-0.5,0.42-0.81,0.42
		c-0.19,0-0.39-0.06-0.56-0.18c-0.45-0.31-0.56-0.93-0.25-1.37c0.32-0.46,0.6-0.96,0.83-1.46c0.22-0.5,0.81-0.72,1.3-0.5
		C194.18,121.76,194.41,122.34,194.19,122.84z M194.07,119.79c-0.01,0-0.01,0-0.02,0c-0.54,0-0.98-0.43-0.99-0.97
		c0-0.29-0.03-0.58-0.07-0.86c-0.08-0.54,0.29-1.04,0.83-1.12c0.54-0.08,1.04,0.3,1.12,0.83c0.05,0.36,0.08,0.74,0.09,1.11
		C195.05,119.33,194.61,119.78,194.07,119.79z M197.6,106.76l-2.93,6.31c-0.7,1.75-1.84,1.75-2.54,0l-2.93-6.31
		c-0.15-0.39-1.27-3.11-1.27-4.31c0-3.02,2.45-5.47,5.47-5.47c3.02,0,5.47,2.45,5.47,5.47C198.87,103.66,197.75,106.38,197.6,106.76
		z"/>
	<circle class="st1" cx="175.53" cy="113.45" r="3.46"/>
</g>
<g class="st0">
	<path class="st1" d="M242.86,246.12c-1.73-1.73-4.57-1.73-6.3,0l-24.69,24.69c-1.73,1.73-1.73,4.57,0,6.3l24.69,24.69
		c1.73,1.73,4.57,1.73,6.3,0l24.69-24.69c1.73-1.73,1.73-4.57,0-6.3L242.86,246.12z M244.81,261.04c1.97,0,3.57,1.6,3.57,3.57
		s-1.6,3.57-3.57,3.57c-1.97,0-3.57-1.6-3.57-3.57S242.84,261.04,244.81,261.04z M234.61,261.04c1.97,0,3.57,1.6,3.57,3.57
		s-1.6,3.57-3.57,3.57c-1.97,0-3.57-1.6-3.57-3.57S232.64,261.04,234.61,261.04z M227.84,275.91c-1.97,0-3.57-1.6-3.57-3.57
		s1.6-3.57,3.57-3.57c1.97,0,3.57,1.6,3.57,3.57S229.81,275.91,227.84,275.91z M239.78,287.28c-4.38,0-7.93-3.55-7.93-7.93
		c0-4.38,3.55-7.93,7.93-7.93c4.38,0,7.93,3.55,7.93,7.93C247.71,283.73,244.16,287.28,239.78,287.28z M251.58,275.91
		c-1.97,0-3.57-1.6-3.57-3.57s1.6-3.57,3.57-3.57c1.97,0,3.57,1.6,3.57,3.57S253.54,275.91,251.58,275.91z"/>
</g>
<g class="st0">
	<path class="st1" d="M223.14,152.89c0-0.01,0-0.13,0-0.3"/>
	<circle class="st1" cx="239.77" cy="145.88" r="3.32"/>
	<path class="st1" d="M249.68,107.66c-15.38,4.82-26.53,19.18-26.53,36.14c0,4.04,0,6.38,0,7.68c0,0.01,0,0.31,0,1.12
		c0,4.15,2.94,7.6,6.85,8.4l0.03,0.01l0.03,0.01l0.03,0.01c6.35,1.27,12.9,1.93,19.6,1.93c6.71,0,13.25-0.66,19.6-1.93l0.03-0.01
		l0.03-0.01l0.03-0.01c3.91-0.79,6.85-4.25,6.85-8.4v-8.8C276.21,126.83,265.05,112.47,249.68,107.66z M261.61,127.61
		c-0.21,5.78-4.73,10.47-10.43,10.94v12.14c0,3.4-2.77,6.17-6.17,6.17c-3.28,0-5.96-2.58-6.15-5.81c-2.46-0.44-4.33-2.59-4.33-5.17
		c0-2.91,2.36-5.26,5.26-5.26c2.91,0,5.26,2.36,5.26,5.26c0,2.57-1.85,4.71-4.29,5.17c0.18,2.19,2.02,3.92,4.25,3.92
		c2.36,0,4.27-1.92,4.27-4.27v-12.14c-5.71-0.47-10.23-5.17-10.43-10.94c-1.36-0.4-2.34-1.66-2.34-3.15c0-1.81,1.47-3.28,3.28-3.28
		c1.81,0,3.28,1.47,3.28,3.28c0,1.48-0.97,2.72-2.31,3.14c0.21,5.05,4.37,9.09,9.48,9.09c5.1,0,9.26-4.04,9.47-9.09
		c-1.34-0.41-2.31-1.66-2.31-3.14c0-1.81,1.47-3.28,3.28-3.28c1.81,0,3.28,1.47,3.28,3.28
		C263.95,125.95,262.96,127.21,261.61,127.61z"/>
</g>
<g class="st0">
	<path class="st1" d="M146.25,232.76c-1.12-1.12-3.33-2.04-4.92-2.04H119.6c-1.58,0-3.8,0.92-4.92,2.04l-15.37,15.37
		c-1.12,1.12-2.04,3.33-2.04,4.92v21.73c0,1.58,0.92,3.8,2.04,4.92l15.37,15.37c1.12,1.12,3.33,2.04,4.92,2.04h21.73
		c1.58,0,3.8-0.92,4.92-2.04l15.37-15.37c1.12-1.12,2.04-3.33,2.04-4.92v-21.73c0-1.58-0.92-3.8-2.04-4.92L146.25,232.76z
		 M115.74,266.33c0.7-7.22,6.52-12.94,13.78-13.49v-3.83h-3.88c-0.64,0-1.15-0.52-1.15-1.15s0.52-1.15,1.15-1.15h10.07
		c0.64,0,1.15,0.52,1.15,1.15s-0.52,1.15-1.15,1.15h-3.88v3.83c7.26,0.55,13.08,6.27,13.78,13.49c0,0,1.43,0.56,1.43,1.92h-32.72
		C114.31,266.9,115.74,266.33,115.74,266.33z M145.62,275.2h-29.89c-1.58,0-2.88-1.04-2.88-2.32c0-1.27,1.3-2.32,2.88-2.32h29.89
		c1.58,0,2.88,1.04,2.88,2.32C148.5,274.16,147.2,275.2,145.62,275.2z"/>
</g>
<g class="st0">
	<path class="st1" d="M238.17,207.34c2.77,2.95,6.63,4.84,10.94,5.06v-13.25L238.17,207.34z"/>
	<path class="st1" d="M250.72,199.14v13.25c4.31-0.21,8.17-2.11,10.94-5.06L250.72,199.14z"/>
	<g>
		<path class="st1" d="M235.74,188.62c-0.5,0.91-0.91,1.88-1.22,2.89c-0.47,1.52-0.73,3.13-0.73,4.8c0,2.78,0.71,5.4,1.95,7.69
			c0.37,0.69,0.81,1.33,1.28,1.96l12.1-8.93v-16.8C243.33,180.51,238.35,183.82,235.74,188.62z M243.98,186.55
			c1.49-0.13,2.82,1.2,2.98,2.98c0.16,1.77-0.93,3.32-2.42,3.45c-1.49,0.13-2.82-1.2-2.98-2.98
			C241.4,188.23,242.49,186.68,243.98,186.55z M241.51,195.52c0.46,1.72-0.34,3.43-1.78,3.82c-1.45,0.39-2.99-0.69-3.45-2.41
			c-0.46-1.72,0.34-3.43,1.78-3.82C239.51,192.72,241.05,193.8,241.51,195.52z"/>
		<path class="st1" d="M265.32,191.51c-0.31-1.01-0.72-1.98-1.22-2.89c-2.61-4.8-7.59-8.11-13.37-8.4v16.8l12.1,8.93
			c0.47-0.62,0.9-1.27,1.28-1.96c1.24-2.29,1.95-4.9,1.95-7.69C266.04,194.64,265.79,193.03,265.32,191.51z M255.25,192.98
			c-1.49-0.13-2.57-1.67-2.42-3.45c0.16-1.77,1.49-3.11,2.98-2.98c1.49,0.13,2.57,1.67,2.42,3.45
			C258.08,191.78,256.74,193.11,255.25,192.98z M263.51,196.92c-0.46,1.72-2.01,2.8-3.45,2.41c-1.45-0.39-2.24-2.1-1.78-3.82
			c0.46-1.72,2.01-2.8,3.45-2.41C263.18,193.49,263.97,195.2,263.51,196.92z"/>
	</g>
</g>
<g class="st0">
	<path class="st1" d="M129.45,37.14c-1.73-1.73-4.57-1.73-6.3,0L98.45,61.83c-1.73,1.73-1.73,4.57,0,6.3l24.69,24.69
		c1.73,1.73,4.57,1.73,6.3,0l24.69-24.69c1.73-1.73,1.73-4.57,0-6.3L129.45,37.14z M131.4,52.06c1.97,0,3.57,1.6,3.57,3.57
		c0,1.97-1.6,3.57-3.57,3.57c-1.97,0-3.57-1.6-3.57-3.57C127.83,53.66,129.43,52.06,131.4,52.06z M121.19,52.06
		c1.97,0,3.57,1.6,3.57,3.57c0,1.97-1.6,3.57-3.57,3.57c-1.97,0-3.57-1.6-3.57-3.57C117.63,53.66,119.22,52.06,121.19,52.06z
		 M114.43,66.93c-1.97,0-3.57-1.6-3.57-3.57c0-1.97,1.6-3.57,3.57-3.57c1.97,0,3.57,1.6,3.57,3.57
		C117.99,65.33,116.4,66.93,114.43,66.93z M126.37,78.3c-4.38,0-7.93-3.55-7.93-7.93c0-4.38,3.55-7.93,7.93-7.93
		c4.38,0,7.93,3.55,7.93,7.93C134.29,74.75,130.75,78.3,126.37,78.3z M138.16,66.93c-1.97,0-3.57-1.6-3.57-3.57
		c0-1.97,1.6-3.57,3.57-3.57c1.97,0,3.57,1.6,3.57,3.57C141.73,65.33,140.13,66.93,138.16,66.93z"/>
</g>
<g class="st0">
	<path class="st1" d="M158.98,27.12c2.77,2.95,6.63,4.84,10.94,5.06V18.92L158.98,27.12z"/>
	<path class="st1" d="M171.53,18.92v13.25c4.31-0.21,8.17-2.11,10.94-5.06L171.53,18.92z"/>
	<g>
		<path class="st1" d="M156.55,8.4c-0.5,0.91-0.91,1.88-1.22,2.89c-0.47,1.52-0.73,3.13-0.73,4.8c0,2.78,0.71,5.4,1.95,7.69
			c0.37,0.69,0.81,1.33,1.28,1.96l12.1-8.93V0C164.14,0.29,159.16,3.6,156.55,8.4z M164.79,6.33c1.49-0.13,2.82,1.2,2.98,2.98
			c0.16,1.77-0.93,3.32-2.42,3.45c-1.49,0.13-2.82-1.2-2.98-2.98C162.22,8.01,163.3,6.46,164.79,6.33z M162.32,15.3
			c0.46,1.72-0.34,3.43-1.78,3.82c-1.45,0.39-2.99-0.69-3.45-2.41c-0.46-1.72,0.34-3.43,1.78-3.82S161.86,13.57,162.32,15.3z"/>
		<path class="st1" d="M186.13,11.29c-0.31-1.01-0.72-1.98-1.22-2.89c-2.61-4.8-7.59-8.11-13.37-8.4v16.8l12.1,8.93
			c0.47-0.62,0.9-1.27,1.28-1.96c1.24-2.29,1.95-4.9,1.95-7.69C186.86,14.42,186.6,12.81,186.13,11.29z M176.06,12.76
			c-1.49-0.13-2.57-1.67-2.42-3.45c0.16-1.77,1.49-3.11,2.98-2.98c1.49,0.13,2.57,1.67,2.42,3.45
			C178.89,11.56,177.55,12.89,176.06,12.76z M184.32,16.7c-0.46,1.72-2.01,2.8-3.45,2.41c-1.45-0.39-2.24-2.1-1.78-3.82
			c0.46-1.72,2.01-2.8,3.45-2.41C183.99,13.27,184.79,14.98,184.32,16.7z"/>
	</g>
</g>
<g class="st0">
	<path class="st1" d="M127.04,158.2c2.77,2.95,6.63,4.84,10.94,5.06V150L127.04,158.2z"/>
	<path class="st1" d="M139.59,150v13.25c4.31-0.21,8.17-2.11,10.94-5.06L139.59,150z"/>
	<g>
		<path class="st1" d="M124.6,139.48c-0.5,0.91-0.91,1.88-1.22,2.89c-0.47,1.52-0.73,3.13-0.73,4.8c0,2.78,0.71,5.4,1.95,7.69
			c0.37,0.69,0.81,1.33,1.28,1.96l12.1-8.93v-16.8C132.2,131.36,127.21,134.67,124.6,139.48z M132.84,137.41
			c1.49-0.13,2.82,1.2,2.98,2.98c0.16,1.77-0.93,3.32-2.42,3.45c-1.49,0.13-2.82-1.2-2.98-2.98
			C130.27,139.08,131.35,137.54,132.84,137.41z M130.38,146.37c0.46,1.72-0.34,3.43-1.78,3.82c-1.45,0.39-2.99-0.69-3.45-2.41
			c-0.46-1.72,0.34-3.43,1.78-3.82C128.37,143.57,129.92,144.65,130.38,146.37z"/>
		<path class="st1" d="M154.18,142.37c-0.31-1.01-0.72-1.98-1.22-2.89c-2.61-4.8-7.59-8.11-13.37-8.4v16.8l12.1,8.93
			c0.47-0.62,0.9-1.27,1.28-1.96c1.24-2.29,1.95-4.9,1.95-7.69C154.91,145.49,154.66,143.88,154.18,142.37z M144.12,143.84
			c-1.49-0.13-2.57-1.67-2.42-3.45c0.16-1.77,1.49-3.11,2.98-2.98s2.57,1.67,2.42,3.45C146.94,142.63,145.61,143.97,144.12,143.84z
			 M152.38,147.78c-0.46,1.72-2.01,2.8-3.45,2.41c-1.45-0.39-2.24-2.1-1.78-3.82c0.46-1.72,2.01-2.8,3.45-2.41
			C152.04,144.35,152.84,146.06,152.38,147.78z"/>
	</g>
</g>
<g class="st0">
	<path class="st1" d="M50.1,153.63c0-0.01,0-0.15,0-0.34"/>
	<circle class="st1" cx="69.24" cy="145.56" r="3.82"/>
	<path class="st1" d="M80.63,101.58c-17.7,5.54-30.53,22.07-30.53,41.59c0,4.65,0,7.34,0,8.83c0,0.01,0,0.35,0,1.29
		c0,4.77,3.39,8.75,7.89,9.66l0.03,0.01l0.03,0.01l0.03,0.01c7.3,1.46,14.84,2.22,22.56,2.22c7.72,0,15.25-0.76,22.56-2.22
		l0.03-0.01l0.03-0.01l0.03-0.01c4.5-0.91,7.89-4.89,7.89-9.66v-10.12C111.16,123.65,98.33,107.12,80.63,101.58z M94.36,124.54
		c-0.24,6.65-5.44,12.05-12.01,12.59v13.97c0,3.92-3.19,7.1-7.1,7.1c-3.78,0-6.86-2.96-7.08-6.69c-2.83-0.5-4.99-2.98-4.99-5.95
		c0-3.34,2.71-6.05,6.05-6.05c3.34,0,6.05,2.71,6.05,6.05c0,2.96-2.13,5.42-4.94,5.95c0.21,2.52,2.32,4.51,4.9,4.51
		c2.71,0,4.92-2.21,4.92-4.92v-13.97c-6.57-0.54-11.77-5.94-12.01-12.59c-1.56-0.46-2.7-1.91-2.7-3.62c0-2.09,1.69-3.78,3.78-3.78
		c2.09,0,3.78,1.69,3.78,3.78c0,1.7-1.12,3.13-2.66,3.61c0.24,5.81,5.03,10.46,10.9,10.46c5.87,0,10.66-4.65,10.9-10.46
		c-1.54-0.48-2.66-1.91-2.66-3.61c0-2.09,1.69-3.78,3.78-3.78c2.09,0,3.78,1.69,3.78,3.78C97.06,122.63,95.92,124.07,94.36,124.54z"
		/>
</g>
<g class="st0">
	<path class="st1" d="M52.81,231.13c4.61,4.91,11.04,8.07,18.22,8.42v-22.07L52.81,231.13z"/>
	<path class="st1" d="M73.72,217.48v22.07c7.18-0.36,13.61-3.51,18.22-8.42L73.72,217.48z"/>
	<g>
		<path class="st1" d="M48.75,199.95c-0.83,1.52-1.51,3.13-2.03,4.82c-0.78,2.52-1.21,5.21-1.21,7.99c0,4.64,1.17,9,3.24,12.81
			c0.62,1.15,1.35,2.22,2.13,3.26l20.15-14.87v-27.99C61.4,186.43,53.1,191.94,48.75,199.95z M62.48,196.5
			c2.48-0.22,4.71,2,4.96,4.96c0.26,2.96-1.54,5.53-4.03,5.75c-2.48,0.22-4.71-2-4.96-4.96C58.19,199.29,60,196.72,62.48,196.5z
			 M58.38,211.43c0.77,2.87-0.56,5.71-2.97,6.36c-2.41,0.65-4.98-1.16-5.75-4.02c-0.77-2.87,0.56-5.71,2.97-6.36
			S57.61,208.57,58.38,211.43z"/>
		<path class="st1" d="M98.03,204.76c-0.52-1.68-1.21-3.29-2.03-4.82c-4.35-8-12.65-13.52-22.28-13.99v27.99l20.15,14.87
			c0.78-1.04,1.51-2.12,2.13-3.26c2.07-3.81,3.24-8.17,3.24-12.81C99.24,209.97,98.82,207.29,98.03,204.76z M81.26,207.21
			c-2.48-0.22-4.29-2.79-4.03-5.75c0.26-2.96,2.48-5.18,4.96-4.96c2.48,0.22,4.29,2.79,4.03,5.75
			C85.97,205.21,83.75,207.43,81.26,207.21z M95.03,213.77c-0.77,2.87-3.34,4.67-5.75,4.02c-2.41-0.65-3.74-3.49-2.97-6.36
			c0.77-2.87,3.34-4.67,5.75-4.02C94.46,208.06,95.79,210.9,95.03,213.77z"/>
	</g>
</g>
</svg>
